<mxfile host="app.diagrams.net" modified="2023-07-28T00:54:17.402Z" agent="Mozilla/5.0 (Macintosh; Intel Mac OS X 10_15_7) AppleWebKit/537.36 (KHTML, like Gecko) Chrome/115.0.0.0 Safari/537.36" version="21.6.5" etag="SbLzfvAHOc6kBNjDFMKZ" type="github">
  <diagram name="Page-1" id="ogbS0EG7GsWRE7YQvQPT">
    <mxGraphModel>
      <root>
        <mxCell id="0" />
        <mxCell id="1" parent="0" />
      </root>
    </mxGraphModel>
  </diagram>
</mxfile>
